<svg width="900" height="320" viewBox="0 0 900 320" fill="none" xmlns="http://www.w3.org/2000/svg" role="img" aria-label="Status window: true rank S (surface scan D), 310 contributions in the last year">
  <defs>
    <filter id="glow" x="-30%" y="-30%" width="160%" height="160%">
      <feGaussianBlur stdDeviation="3" result="b"/>
      <feMerge><feMergeNode in="b"/><feMergeNode in="SourceGraphic"/></feMerge>
    </filter>
    <filter id="glow2" x="-50%" y="-50%" width="200%" height="200%">
      <feGaussianBlur stdDeviation="7" result="b"/>
      <feMerge><feMergeNode in="b"/><feMergeNode in="SourceGraphic"/></feMerge>
    </filter>
    <pattern id="scan" width="4" height="4" patternUnits="userSpaceOnUse">
      <rect width="4" height="1" fill="#4CC9F0" opacity="0.04"/>
    </pattern>
    <linearGradient id="panelfade" x1="0" y1="0" x2="0" y2="1">
      <stop offset="0" stop-color="#0C1430"/>
      <stop offset="1" stop-color="#070B1A"/>
    </linearGradient>
  </defs>
  <style>
    text { font-family: ui-monospace, SFMono-Regular, Menlo, Consolas, 'Liberation Mono', monospace; }
    .hdr { fill: #4CC9F0; font-size: 13px; letter-spacing: 5px; }
    .dot { fill: #4CC9F0; animation: blink 2s steps(1) infinite; }
    .rank { fill: #9D5CFF; font-size: 110px; font-weight: 700; }
    .ranklbl { fill: #55608A; font-size: 12px; letter-spacing: 4px; }
    .stat { fill: #8A94C0; font-size: 14px; letter-spacing: 1px; }
    .num { fill: #EAF2FF; font-size: 14px; font-weight: 700; }
    .lang { fill: #EAF2FF; font-size: 12px; }
    .pct { fill: #55608A; font-size: 11px; }
    @keyframes blink { 0%, 100% { opacity: 1; } 50% { opacity: 0.15; } }
    @media (prefers-reduced-motion: reduce) { * { animation: none !important; } }
  </style>
  <rect x="20" y="20" width="860" height="280" rx="10" fill="url(#panelfade)"/>
  <rect x="20" y="20" width="860" height="280" rx="10" fill="url(#scan)"/>
  <rect x="20.5" y="20.5" width="859" height="279" rx="9.5" stroke="#4CC9F0" stroke-opacity="0.55" filter="url(#glow)"/>
  <g stroke="#4CC9F0" stroke-width="2.5" filter="url(#glow)">
    <path d="M20 48 V20 H48"/><path d="M852 20 H880 V48"/>
    <path d="M20 272 V300 H48"/><path d="M852 300 H880 V272"/>
  </g>
  <text class="hdr" x="60" y="66"><tspan class="dot">◈</tspan> STATUS WINDOW · HUNTER LICENSE: HY0REN</text>
  <text class="rank" x="76" y="204" filter="url(#glow2)">S</text>
  <text class="ranklbl" x="62" y="236">TRUE RANK</text>
  <text class="stat" x="260" y="118">CONTRIBUTIONS · 12 MO</text>
  <text class="num" x="560" y="118" text-anchor="end">310</text>
  <text class="stat" x="260" y="158">REPOSITORIES</text>
  <text class="num" x="560" y="158" text-anchor="end">11</text>
  <text class="stat" x="260" y="198">STARS EARNED</text>
  <text class="num" x="560" y="198" text-anchor="end">2</text>
  <text class="stat" x="260" y="238">ALLIES · FOLLOWERS</text>
  <text class="num" x="560" y="238" text-anchor="end">1</text>
  <text class="hdr" x="620" y="98" style="font-size:11px">MANA AFFINITY</text>
  <text class="lang" x="620" y="126">TypeScript</text>
  <rect x="620" y="134" width="200" height="6" rx="3" fill="#121A38"/>
  <rect x="620" y="134" width="0" height="6" rx="3" fill="#4CC9F0">
    <animate attributeName="width" from="0" to="157" dur="1.1s" begin="0.20s" fill="freeze" calcMode="spline" keySplines="0.22 1 0.36 1" keyTimes="0;1"/>
  </rect>
  <text class="pct" x="825" y="126">78%</text>
  <text class="lang" x="620" y="170">JavaScript</text>
  <rect x="620" y="178" width="200" height="6" rx="3" fill="#121A38"/>
  <rect x="620" y="178" width="0" height="6" rx="3" fill="#9D5CFF">
    <animate attributeName="width" from="0" to="19" dur="1.1s" begin="0.35s" fill="freeze" calcMode="spline" keySplines="0.22 1 0.36 1" keyTimes="0;1"/>
  </rect>
  <text class="pct" x="825" y="170">9%</text>
  <text class="lang" x="620" y="214">Python</text>
  <rect x="620" y="222" width="200" height="6" rx="3" fill="#121A38"/>
  <rect x="620" y="222" width="0" height="6" rx="3" fill="#4CC9F0">
    <animate attributeName="width" from="0" to="17" dur="1.1s" begin="0.50s" fill="freeze" calcMode="spline" keySplines="0.22 1 0.36 1" keyTimes="0;1"/>
  </rect>
  <text class="pct" x="825" y="214">9%</text>
  <text class="lang" x="620" y="258">CSS</text>
  <rect x="620" y="266" width="200" height="6" rx="3" fill="#121A38"/>
  <rect x="620" y="266" width="0" height="6" rx="3" fill="#9D5CFF">
    <animate attributeName="width" from="0" to="7" dur="1.1s" begin="0.65s" fill="freeze" calcMode="spline" keySplines="0.22 1 0.36 1" keyTimes="0;1"/>
  </rect>
  <text class="pct" x="825" y="258">4%</text>
  <text class="ranklbl" x="260" y="272">SURFACE SCAN: D-RANK · TRUE POWER CONCEALED · RE-SCANNED DAILY</text>
</svg>
